<?xml version="1.0" standalone="no"?>
<!DOCTYPE svg PUBLIC "-//W3C//DTD SVG 20010904//EN"
 "http://www.w3.org/TR/2001/REC-SVG-20010904/DTD/svg10.dtd">
<svg version="1.0" xmlns="http://www.w3.org/2000/svg"
 width="1088.000000pt" height="1024.000000pt" viewBox="0 0 1088.000000 1024.000000"
 preserveAspectRatio="xMidYMid meet">

<g transform="translate(0.000000,1024.000000) scale(0.100000,-0.100000)"
fill="#000000" stroke="none">
<path d="M4656 8428 c-352 -997 -648 -1837 -659 -1865 l-20 -53 -1988 0 -1989
0 0 -39 0 -39 1531 -1203 c842 -661 1533 -1209 1536 -1217 3 -7 -247 -872
-555 -1920 -308 -1049 -560 -1908 -558 -1909 1 -1 762 504 1690 1123 l1688
1126 1690 -1127 c930 -619 1691 -1125 1692 -1123 2 2 -248 856 -555 1898 -307
1042 -560 1904 -563 1915 -4 17 255 224 1574 1260 869 682 1579 1243 1580
1247 0 5 -914 9 -2032 10 l-2032 3 -657 1860 -656 1860 -39 3 -39 3 -639
-1813z m1283 -438 l598 -1695 1799 -5 1799 -5 -1393 -1094 c-765 -602 -1392
-1100 -1392 -1107 0 -11 964 -3299 990 -3377 7 -21 6 -26 -3 -20 -7 4 -685
456 -1508 1004 l-1496 997 -1508 -1004 c-850 -567 -1504 -997 -1501 -987 22
72 996 3387 996 3392 0 3 -627 499 -1394 1101 l-1393 1095 1797 3 1798 2 20
58 c16 47 1140 3228 1175 3327 6 16 12 25 14 20 2 -6 273 -773 602 -1705z"/>
</g>
</svg>
